<?xml version="1.0" encoding="UTF-8"?>
<!DOCTYPE svg PUBLIC "-//W3C//DTD SVG 1.1//EN" "http://www.w3.org/Graphics/SVG/1.1/DTD/svg11.dtd">
<!-- Creator: CorelDRAW -->
<svg xmlns="http://www.w3.org/2000/svg" xml:space="preserve" width="2048px" height="2048px" style="shape-rendering:geometricPrecision; text-rendering:geometricPrecision; image-rendering:optimizeQuality; fill-rule:evenodd; clip-rule:evenodd"
viewBox="0 0 2048 2048"
 xmlns:xlink="http://www.w3.org/1999/xlink">
 <defs>
  <style type="text/css">
   <![CDATA[
    .fil2 {fill:none}
    .fil0 {fill:#212121;fill-rule:nonzero}
    .fil1 {fill:#66BB6A;fill-rule:nonzero}
   ]]>
  </style>
 </defs>
 <g id="Layer_x0020_1">
  <metadata id="CorelCorpID_0Corel-Layer"/>
  <path class="fil0" d="M574.516 255.999l1010.97 0c16.5036,0 31.4906,6.73465 42.3402,17.5843 10.8496,10.8496 17.5843,25.8366 17.5843,42.3402l0 1416.15c0,16.5036 -6.73465,31.4906 -17.5843,42.3402 -10.8496,10.8496 -25.8366,17.5843 -42.3402,17.5843l-1010.97 0c-16.5047,0 -31.4918,-6.73583 -42.3414,-17.5831 -10.8473,-10.8496 -17.5831,-25.8366 -17.5831,-42.3414l0 -1416.15c0,-16.5047 6.73583,-31.4918 17.5831,-42.3414 10.8496,-10.8473 25.8366,-17.5831 42.3414,-17.5831zm1010.97 48l-1010.97 0c-3.25394,0 -6.2315,1.34882 -8.40355,3.52087 -2.17205,2.17205 -3.52087,5.14961 -3.52087,8.40355l0 1416.15c0,3.25394 1.34882,6.2315 3.52087,8.40355 2.17205,2.17205 5.14961,3.52087 8.40355,3.52087l1010.97 0c3.25276,0 6.23032,-1.35 8.40237,-3.52205 2.17205,-2.17205 3.52205,-5.14961 3.52205,-8.40237l0 -1416.15c0,-3.25276 -1.35,-6.23032 -3.52205,-8.40237 -2.17205,-2.17205 -5.14961,-3.52205 -8.40237,-3.52205z"/>
  <path class="fil0" d="M426.591 455.887c-13.2543,0 -24,10.7457 -24,24 0,13.2543 10.7457,24 24,24l224.001 0c13.2543,0 24,-10.7457 24,-24 0,-13.2543 -10.7457,-24 -24,-24l-224.001 0z"/>
  <path class="fil0" d="M426.591 727.943c-13.2543,0 -24,10.7457 -24,24 0,13.2543 10.7457,24 24,24l224.001 0c13.2543,0 24,-10.7457 24,-24 0,-13.2543 -10.7457,-24 -24,-24l-224.001 0z"/>
  <path class="fil0" d="M426.591 1000c-13.2543,0 -24,10.7457 -24,24 0,13.2543 10.7457,24 24,24l224.001 0c13.2543,0 24,-10.7457 24,-24 0,-13.2543 -10.7457,-24 -24,-24l-224.001 0z"/>
  <path class="fil0" d="M426.591 1272.06c-13.2543,0 -24,10.7457 -24,24 0,13.2543 10.7457,24 24,24l224.001 0c13.2543,0 24,-10.7457 24,-24 0,-13.2543 -10.7457,-24 -24,-24l-224.001 0z"/>
  <path class="fil0" d="M426.591 1544.11c-13.2543,0 -24,10.7457 -24,24 0,13.2543 10.7457,24 24,24l224.001 0c13.2543,0 24,-10.7457 24,-24 0,-13.2543 -10.7457,-24 -24,-24l-224.001 0z"/>
  <g id="_475112304">
   <path id="_475112232" class="fil1" d="M1126.94 700.277c89.3918,0 170.322,36.2351 228.905,94.8178 58.5827,58.5827 94.8178,139.514 94.8178,228.906 0,89.3918 -36.2351,170.323 -94.8178,228.905 -58.5815,58.5827 -139.513,94.8178 -228.905,94.8178 -89.3906,0 -170.323,-36.2351 -228.905,-94.8178 -58.5827,-58.5815 -94.8178,-139.513 -94.8178,-228.905 0,-89.3918 36.2351,-170.323 94.8178,-228.906 58.5827,-58.5827 139.513,-94.8178 228.905,-94.8178zm194.967 128.756c-49.8933,-49.8933 -118.826,-80.7556 -194.967,-80.7556 -76.141,0 -145.074,30.8622 -194.967,80.7556 -49.8945,49.8945 -80.7556,118.827 -80.7556,194.968 0,76.141 30.861,145.074 80.7556,194.967 49.8933,49.8945 118.827,80.7556 194.967,80.7556 76.141,0 145.074,-30.861 194.967,-80.7556 49.8945,-49.8933 80.7556,-118.826 80.7556,-194.967 0,-76.141 -30.861,-145.074 -80.7556,-194.968z"/>
   <path id="_475112520" class="fil1" d="M928.831 1264.26c-1.81181,13.0984 7.33938,25.1882 20.4378,27 13.0984,1.81181 25.1882,-7.33938 27,-20.4378 2.99528,-21.6307 13.9512,-40.8803 29.8122,-54.6981 15.5976,-13.5886 35.9422,-21.8445 58.1103,-21.8445l7.25552 0c7.22363,5.14725 14.7874,9.40276 22.6477,12.5752 10.5732,4.26851 21.5622,6.61182 32.85,6.61182 11.289,0 22.278,-2.34331 32.85,-6.61182 7.86024,-3.17244 15.4252,-7.42796 22.6477,-12.5752l7.2567 0c21.965,0 42.1453,8.113 57.6898,21.4949 15.8067,13.6051 26.8134,32.5996 30.0402,54.0012 1.96654,13.0984 14.1827,22.1232 27.2811,20.1567 13.0984,-1.96654 22.1232,-14.1827 20.1567,-27.2811 -4.99016,-33.0922 -21.9024,-62.3682 -46.1646,-83.2524 -23.9516,-20.6185 -55.0819,-33.1193 -89.0032,-33.1193l-15.1654 0 -0.0578741 0c-5.35985,-0.00354331 -10.7539,1.77874 -15.2209,5.4437l15.2209 18.5563 -15.1878 -18.4689c-5.59725,4.59095 -11.4,8.22166 -17.3067,10.6063 -4.87678,1.9689 -9.90946,3.04961 -15.0366,3.04961 -5.12835,0 -10.161,-1.08189 -15.0366,-3.04961 -5.41654,-2.1874 -10.7457,-5.42126 -15.9095,-9.48426 -4.30985,-4.12087 -10.1516,-6.65315 -16.5851,-6.65315l-15.2221 0c-34.2048,0 -65.5772,12.7205 -89.6103,33.6579 -24.3036,21.1725 -41.113,50.8406 -45.75,84.3225z"/>
   <path id="_475112592" class="fil1" d="M1126.94 823.599c38.928,0 74.5949,9.69922 100.341,30.287 24.6319,19.6973 39.6733,48.2681 39.6733,86.4827 0,39.2244 -17.0917,91.5083 -44.1343,130.742 -24.5268,35.5855 -57.8008,61.5697 -95.8796,61.5697 -38.0776,0 -71.3528,-25.9843 -95.8796,-61.5697 -27.0425,-39.2339 -44.1343,-91.5178 -44.1343,-130.742 0,-38.2146 15.0414,-66.7855 39.6733,-86.4827 25.7457,-20.5878 61.4126,-30.287 100.341,-30.287zm70.5272 67.6004c-16.6606,-13.3228 -41.85,-19.6004 -70.5272,-19.6004 -28.6772,0 -53.8666,6.27756 -70.5272,19.6004 -13.3406,10.6677 -21.4866,26.8465 -21.4866,49.1693 0,30.5965 13.7516,71.9894 35.5099,103.556 16.2354,23.5559 36.2599,40.7563 56.504,40.7563 20.2429,0 40.2685,-17.2004 56.504,-40.7563 21.7583,-31.5662 35.5099,-72.9591 35.5099,-103.556 0,-22.3229 -8.14607,-38.5016 -21.4866,-49.1693z"/>
  </g>
 </g>
 <rect class="fil2" width="2048" height="2048"/>
</svg>
